<mxfile host="app.diagrams.net" modified="2022-12-28T07:01:07.666Z" agent="5.0 (Windows NT 10.0; Win64; x64) AppleWebKit/537.36 (KHTML, like Gecko) Chrome/108.0.0.0 Safari/537.36" etag="h75cumHK_t36s04bkS2I" version="15.2.5" type="github">
  <diagram id="C5RBs43oDa-KdzZeNtuy" name="Page-1">
    <mxGraphModel dx="1730" dy="1365" grid="0" gridSize="10" guides="1" tooltips="1" connect="1" arrows="1" fold="1" page="0" pageScale="1" pageWidth="827" pageHeight="1169" math="0" shadow="0">
      <root>
        <mxCell id="WIyWlLk6GJQsqaUBKTNV-0" />
        <mxCell id="WIyWlLk6GJQsqaUBKTNV-1" parent="WIyWlLk6GJQsqaUBKTNV-0" />
        <mxCell id="lVU3wNaucCvt7rgFDzpp-3" value="" style="edgeStyle=orthogonalEdgeStyle;rounded=0;orthogonalLoop=1;jettySize=auto;html=1;" edge="1" parent="WIyWlLk6GJQsqaUBKTNV-1" source="lVU3wNaucCvt7rgFDzpp-0" target="lVU3wNaucCvt7rgFDzpp-2">
          <mxGeometry relative="1" as="geometry" />
        </mxCell>
        <mxCell id="lVU3wNaucCvt7rgFDzpp-0" value="start" style="ellipse;whiteSpace=wrap;html=1;fillColor=#d5e8d4;strokeColor=#82b366;" vertex="1" parent="WIyWlLk6GJQsqaUBKTNV-1">
          <mxGeometry x="156" y="-382" width="74" height="47" as="geometry" />
        </mxCell>
        <mxCell id="lVU3wNaucCvt7rgFDzpp-5" value="" style="edgeStyle=orthogonalEdgeStyle;rounded=0;orthogonalLoop=1;jettySize=auto;html=1;" edge="1" parent="WIyWlLk6GJQsqaUBKTNV-1" source="lVU3wNaucCvt7rgFDzpp-2">
          <mxGeometry relative="1" as="geometry">
            <mxPoint x="193.00000000000023" y="-216" as="targetPoint" />
          </mxGeometry>
        </mxCell>
        <mxCell id="lVU3wNaucCvt7rgFDzpp-2" value="Analyze regession range OK" style="rounded=0;whiteSpace=wrap;html=1;fillColor=#ffc000;strokeColor=#d6b656;" vertex="1" parent="WIyWlLk6GJQsqaUBKTNV-1">
          <mxGeometry x="106" y="-307" width="174" height="60" as="geometry" />
        </mxCell>
        <mxCell id="lVU3wNaucCvt7rgFDzpp-7" value="" style="edgeStyle=orthogonalEdgeStyle;rounded=0;orthogonalLoop=1;jettySize=auto;html=1;" edge="1" parent="WIyWlLk6GJQsqaUBKTNV-1" target="lVU3wNaucCvt7rgFDzpp-6">
          <mxGeometry relative="1" as="geometry">
            <mxPoint x="193.00000000000023" y="-156" as="sourcePoint" />
          </mxGeometry>
        </mxCell>
        <mxCell id="lVU3wNaucCvt7rgFDzpp-11" value="" style="edgeStyle=orthogonalEdgeStyle;rounded=0;orthogonalLoop=1;jettySize=auto;html=1;" edge="1" parent="WIyWlLk6GJQsqaUBKTNV-1" source="lVU3wNaucCvt7rgFDzpp-6" target="lVU3wNaucCvt7rgFDzpp-10">
          <mxGeometry relative="1" as="geometry" />
        </mxCell>
        <mxCell id="lVU3wNaucCvt7rgFDzpp-6" value="Unit Test PASS" style="rhombus;whiteSpace=wrap;html=1;fillColor=#fff2cc;strokeColor=#d6b656;" vertex="1" parent="WIyWlLk6GJQsqaUBKTNV-1">
          <mxGeometry x="104" y="-123" width="177" height="60" as="geometry" />
        </mxCell>
        <mxCell id="lVU3wNaucCvt7rgFDzpp-8" style="edgeStyle=orthogonalEdgeStyle;rounded=0;orthogonalLoop=1;jettySize=auto;html=1;exitX=0.5;exitY=1;exitDx=0;exitDy=0;" edge="1" parent="WIyWlLk6GJQsqaUBKTNV-1" source="lVU3wNaucCvt7rgFDzpp-6" target="lVU3wNaucCvt7rgFDzpp-6">
          <mxGeometry relative="1" as="geometry" />
        </mxCell>
        <mxCell id="lVU3wNaucCvt7rgFDzpp-9" value="Y" style="text;html=1;strokeColor=none;fillColor=none;align=center;verticalAlign=middle;whiteSpace=wrap;rounded=0;" vertex="1" parent="WIyWlLk6GJQsqaUBKTNV-1">
          <mxGeometry x="180" y="-152" width="40" height="20" as="geometry" />
        </mxCell>
        <mxCell id="lVU3wNaucCvt7rgFDzpp-10" value="Analyze intergation module level requirements" style="rounded=0;whiteSpace=wrap;html=1;fillColor=#ffc000;strokeColor=#d6b656;" vertex="1" parent="WIyWlLk6GJQsqaUBKTNV-1">
          <mxGeometry x="105" y="-28" width="174" height="60" as="geometry" />
        </mxCell>
        <mxCell id="lVU3wNaucCvt7rgFDzpp-15" value="" style="edgeStyle=orthogonalEdgeStyle;rounded=0;orthogonalLoop=1;jettySize=auto;html=1;" edge="1" parent="WIyWlLk6GJQsqaUBKTNV-1" source="lVU3wNaucCvt7rgFDzpp-12" target="lVU3wNaucCvt7rgFDzpp-14">
          <mxGeometry relative="1" as="geometry" />
        </mxCell>
        <mxCell id="lVU3wNaucCvt7rgFDzpp-12" value="Generate Test cases &amp;amp; excute them by LDRA TBun&amp;nbsp;" style="whiteSpace=wrap;html=1;rounded=0;strokeColor=#d6b656;fillColor=#ffc000;" vertex="1" parent="WIyWlLk6GJQsqaUBKTNV-1">
          <mxGeometry x="103" y="174" width="178" height="60" as="geometry" />
        </mxCell>
        <mxCell id="lVU3wNaucCvt7rgFDzpp-19" style="edgeStyle=orthogonalEdgeStyle;rounded=0;orthogonalLoop=1;jettySize=auto;html=1;exitX=1;exitY=0.5;exitDx=0;exitDy=0;entryX=0;entryY=0.5;entryDx=0;entryDy=0;" edge="1" parent="WIyWlLk6GJQsqaUBKTNV-1" source="lVU3wNaucCvt7rgFDzpp-14" target="lVU3wNaucCvt7rgFDzpp-18">
          <mxGeometry relative="1" as="geometry" />
        </mxCell>
        <mxCell id="lVU3wNaucCvt7rgFDzpp-14" value="Collect test result and write test report" style="whiteSpace=wrap;html=1;rounded=0;strokeColor=#d6b656;fillColor=#ffc000;" vertex="1" parent="WIyWlLk6GJQsqaUBKTNV-1">
          <mxGeometry x="103" y="263" width="178" height="60" as="geometry" />
        </mxCell>
        <mxCell id="lVU3wNaucCvt7rgFDzpp-16" value="Unit Test PASS" style="rhombus;whiteSpace=wrap;html=1;fillColor=#fff2cc;strokeColor=#d6b656;" vertex="1" parent="WIyWlLk6GJQsqaUBKTNV-1">
          <mxGeometry x="104" y="-123" width="177" height="60" as="geometry" />
        </mxCell>
        <mxCell id="lVU3wNaucCvt7rgFDzpp-17" value="Unit Test PASS" style="rhombus;whiteSpace=wrap;html=1;fillColor=#ffc000;strokeColor=#d6b656;" vertex="1" parent="WIyWlLk6GJQsqaUBKTNV-1">
          <mxGeometry x="104" y="-123" width="177" height="60" as="geometry" />
        </mxCell>
        <mxCell id="lVU3wNaucCvt7rgFDzpp-21" value="" style="edgeStyle=orthogonalEdgeStyle;rounded=0;orthogonalLoop=1;jettySize=auto;html=1;" edge="1" parent="WIyWlLk6GJQsqaUBKTNV-1" source="lVU3wNaucCvt7rgFDzpp-18" target="lVU3wNaucCvt7rgFDzpp-20">
          <mxGeometry relative="1" as="geometry" />
        </mxCell>
        <mxCell id="lVU3wNaucCvt7rgFDzpp-26" value="" style="edgeStyle=orthogonalEdgeStyle;rounded=0;orthogonalLoop=1;jettySize=auto;html=1;" edge="1" parent="WIyWlLk6GJQsqaUBKTNV-1" source="lVU3wNaucCvt7rgFDzpp-18" target="lVU3wNaucCvt7rgFDzpp-20">
          <mxGeometry relative="1" as="geometry" />
        </mxCell>
        <mxCell id="lVU3wNaucCvt7rgFDzpp-32" style="edgeStyle=none;rounded=0;orthogonalLoop=1;jettySize=auto;html=1;exitX=0.5;exitY=0;exitDx=0;exitDy=0;entryX=0.5;entryY=1;entryDx=0;entryDy=0;" edge="1" parent="WIyWlLk6GJQsqaUBKTNV-1" source="lVU3wNaucCvt7rgFDzpp-18" target="lVU3wNaucCvt7rgFDzpp-30">
          <mxGeometry relative="1" as="geometry" />
        </mxCell>
        <mxCell id="lVU3wNaucCvt7rgFDzpp-18" value="Test result and test report &lt;br&gt;present to previewer review OK" style="rhombus;whiteSpace=wrap;html=1;fillColor=#00b0f2;strokeColor=#d6b656;" vertex="1" parent="WIyWlLk6GJQsqaUBKTNV-1">
          <mxGeometry x="420" y="240" width="255" height="106" as="geometry" />
        </mxCell>
        <mxCell id="lVU3wNaucCvt7rgFDzpp-24" value="" style="edgeStyle=orthogonalEdgeStyle;rounded=0;orthogonalLoop=1;jettySize=auto;html=1;" edge="1" parent="WIyWlLk6GJQsqaUBKTNV-1" source="lVU3wNaucCvt7rgFDzpp-20" target="lVU3wNaucCvt7rgFDzpp-23">
          <mxGeometry relative="1" as="geometry" />
        </mxCell>
        <mxCell id="lVU3wNaucCvt7rgFDzpp-20" value="Deliver work product" style="whiteSpace=wrap;html=1;strokeColor=#d6b656;fillColor=#00b0f2;" vertex="1" parent="WIyWlLk6GJQsqaUBKTNV-1">
          <mxGeometry x="454" y="381" width="186" height="60" as="geometry" />
        </mxCell>
        <mxCell id="lVU3wNaucCvt7rgFDzpp-22" value="start" style="ellipse;whiteSpace=wrap;html=1;fillColor=#229e63;strokeColor=#82b366;" vertex="1" parent="WIyWlLk6GJQsqaUBKTNV-1">
          <mxGeometry x="156" y="-382" width="74" height="47" as="geometry" />
        </mxCell>
        <mxCell id="lVU3wNaucCvt7rgFDzpp-23" value="End" style="ellipse;whiteSpace=wrap;html=1;fillColor=#229e63;strokeColor=#82b366;" vertex="1" parent="WIyWlLk6GJQsqaUBKTNV-1">
          <mxGeometry x="510" y="474" width="74" height="47" as="geometry" />
        </mxCell>
        <mxCell id="lVU3wNaucCvt7rgFDzpp-34" style="edgeStyle=none;rounded=0;orthogonalLoop=1;jettySize=auto;html=1;exitX=1;exitY=0.5;exitDx=0;exitDy=0;" edge="1" parent="WIyWlLk6GJQsqaUBKTNV-1">
          <mxGeometry relative="1" as="geometry">
            <mxPoint x="552.7353228400736" y="-185.2958823529411" as="targetPoint" />
            <mxPoint x="281.5000000000002" y="-185.59" as="sourcePoint" />
          </mxGeometry>
        </mxCell>
        <mxCell id="lVU3wNaucCvt7rgFDzpp-27" value="Y" style="text;html=1;strokeColor=none;fillColor=none;align=center;verticalAlign=middle;whiteSpace=wrap;rounded=0;" vertex="1" parent="WIyWlLk6GJQsqaUBKTNV-1">
          <mxGeometry x="539" y="350" width="40" height="20" as="geometry" />
        </mxCell>
        <mxCell id="lVU3wNaucCvt7rgFDzpp-29" value="Deliver work product" style="whiteSpace=wrap;html=1;strokeColor=#d6b656;fillColor=#00b0f2;" vertex="1" parent="WIyWlLk6GJQsqaUBKTNV-1">
          <mxGeometry x="454" y="381" width="186" height="60" as="geometry" />
        </mxCell>
        <mxCell id="lVU3wNaucCvt7rgFDzpp-31" style="edgeStyle=none;rounded=0;orthogonalLoop=1;jettySize=auto;html=1;exitX=0;exitY=0.5;exitDx=0;exitDy=0;entryX=1;entryY=0.5;entryDx=0;entryDy=0;" edge="1" parent="WIyWlLk6GJQsqaUBKTNV-1" source="lVU3wNaucCvt7rgFDzpp-30" target="lVU3wNaucCvt7rgFDzpp-2">
          <mxGeometry relative="1" as="geometry" />
        </mxCell>
        <mxCell id="lVU3wNaucCvt7rgFDzpp-30" value="Source Code &amp;amp; Document update OK" style="whiteSpace=wrap;html=1;strokeColor=#d6b656;fillColor=#00b0f2;" vertex="1" parent="WIyWlLk6GJQsqaUBKTNV-1">
          <mxGeometry x="453" y="-307" width="199" height="60" as="geometry" />
        </mxCell>
        <mxCell id="lVU3wNaucCvt7rgFDzpp-33" value="N" style="text;html=1;strokeColor=none;fillColor=none;align=center;verticalAlign=middle;whiteSpace=wrap;rounded=0;" vertex="1" parent="WIyWlLk6GJQsqaUBKTNV-1">
          <mxGeometry x="544" y="10" width="40" height="20" as="geometry" />
        </mxCell>
        <mxCell id="lVU3wNaucCvt7rgFDzpp-37" style="edgeStyle=none;rounded=0;orthogonalLoop=1;jettySize=auto;html=1;exitX=1;exitY=0.5;exitDx=0;exitDy=0;" edge="1" parent="WIyWlLk6GJQsqaUBKTNV-1" source="lVU3wNaucCvt7rgFDzpp-35">
          <mxGeometry relative="1" as="geometry">
            <mxPoint x="551" y="-93" as="targetPoint" />
          </mxGeometry>
        </mxCell>
        <mxCell id="lVU3wNaucCvt7rgFDzpp-35" value="Unit Test PASS" style="rhombus;whiteSpace=wrap;html=1;fillColor=#ffc000;strokeColor=#d6b656;" vertex="1" parent="WIyWlLk6GJQsqaUBKTNV-1">
          <mxGeometry x="104" y="-123" width="177" height="60" as="geometry" />
        </mxCell>
        <mxCell id="lVU3wNaucCvt7rgFDzpp-36" value="Static test &amp;amp; code inspection OK" style="rhombus;whiteSpace=wrap;html=1;fillColor=#ffc000;strokeColor=#d6b656;" vertex="1" parent="WIyWlLk6GJQsqaUBKTNV-1">
          <mxGeometry x="104.5" y="-215" width="177" height="60" as="geometry" />
        </mxCell>
        <mxCell id="lVU3wNaucCvt7rgFDzpp-39" value="N" style="text;html=1;strokeColor=none;fillColor=none;align=center;verticalAlign=middle;whiteSpace=wrap;rounded=0;" vertex="1" parent="WIyWlLk6GJQsqaUBKTNV-1">
          <mxGeometry x="413" y="-207" width="40" height="20" as="geometry" />
        </mxCell>
        <mxCell id="lVU3wNaucCvt7rgFDzpp-40" value="N" style="text;html=1;strokeColor=none;fillColor=none;align=center;verticalAlign=middle;whiteSpace=wrap;rounded=0;" vertex="1" parent="WIyWlLk6GJQsqaUBKTNV-1">
          <mxGeometry x="413" y="-207" width="40" height="20" as="geometry" />
        </mxCell>
        <mxCell id="lVU3wNaucCvt7rgFDzpp-41" value="N" style="text;html=1;strokeColor=none;fillColor=none;align=center;verticalAlign=middle;whiteSpace=wrap;rounded=0;" vertex="1" parent="WIyWlLk6GJQsqaUBKTNV-1">
          <mxGeometry x="413" y="-112" width="40" height="20" as="geometry" />
        </mxCell>
        <mxCell id="lVU3wNaucCvt7rgFDzpp-44" style="edgeStyle=none;rounded=0;orthogonalLoop=1;jettySize=auto;html=1;exitX=0.5;exitY=1;exitDx=0;exitDy=0;entryX=0.5;entryY=0;entryDx=0;entryDy=0;" edge="1" parent="WIyWlLk6GJQsqaUBKTNV-1" source="lVU3wNaucCvt7rgFDzpp-42" target="lVU3wNaucCvt7rgFDzpp-43">
          <mxGeometry relative="1" as="geometry" />
        </mxCell>
        <mxCell id="lVU3wNaucCvt7rgFDzpp-42" value="Analyze intergation module level requirements" style="rounded=0;whiteSpace=wrap;html=1;fillColor=#ffc000;strokeColor=#d6b656;" vertex="1" parent="WIyWlLk6GJQsqaUBKTNV-1">
          <mxGeometry x="105" y="-28" width="174" height="60" as="geometry" />
        </mxCell>
        <mxCell id="lVU3wNaucCvt7rgFDzpp-45" style="edgeStyle=none;rounded=0;orthogonalLoop=1;jettySize=auto;html=1;exitX=0.5;exitY=1;exitDx=0;exitDy=0;entryX=0.5;entryY=0;entryDx=0;entryDy=0;" edge="1" parent="WIyWlLk6GJQsqaUBKTNV-1" source="lVU3wNaucCvt7rgFDzpp-43" target="lVU3wNaucCvt7rgFDzpp-12">
          <mxGeometry relative="1" as="geometry" />
        </mxCell>
        <mxCell id="lVU3wNaucCvt7rgFDzpp-43" value="Analyze functions and call relationships" style="rounded=0;whiteSpace=wrap;html=1;fillColor=#ffc000;strokeColor=#d6b656;" vertex="1" parent="WIyWlLk6GJQsqaUBKTNV-1">
          <mxGeometry x="104.5" y="69" width="174" height="60" as="geometry" />
        </mxCell>
      </root>
    </mxGraphModel>
  </diagram>
</mxfile>
